<svg version="1.2" xmlns="http://www.w3.org/2000/svg" viewBox="0 0 1974 1980" width="140" height="140"><style>.a{fill:#efa07b}.b{fill:#4a274f}</style><g style="display:none"><path class="a" d="m-19663.1-6060.1h28150.1v14035.4h-28150.1z"/></g><g style="display:none"><path fill-rule="evenodd" class="a" d="m1947 1947.9h-1903.2v-1903.1h1903.2zm-1784.2-1784.2v1665.2h1665.2v-1665.2z"/><path class="a" d="m693.2 586.3l266.4 460.4h-532.8z"/><path class="a" d="m1297.6 378.2l266.4 460.3h-532.8z"/><path class="a" d="m693.2 1156l266.4 460.4h-532.8z"/><path class="a" d="m1297.6 947.8l266.4 460.4h-532.8z"/></g><g style="display:none"><path fill-rule="evenodd" class="a" d="m1947 1947.9h-1903.2v-1903.1h1903.2zm-1843.7-1843.7v1784.2h1784.2v-1784.2z"/><path fill-rule="evenodd" class="a" d="m959.5 1046.7h-532.7l266.4-460.4zm-429.7-59.5h326.5l-163.2-282.1z"/><path fill-rule="evenodd" class="a" d="m1564 838.5h-532.7l266.3-460.3zm-429.6-59.5h326.5l-163.2-282.2z"/><path fill-rule="evenodd" class="a" d="m959.5 1616.4h-532.7l266.4-460.4zm-429.7-59.5h326.5l-163.2-282.1z"/><path fill-rule="evenodd" class="a" d="m1564 1408.2h-532.7l266.3-460.4zm-429.6-59.4h326.5l-163.2-282.2z"/></g><g style="display:none"><path class="a" d="m73.6 74.5h1843.6v1843.6h-1843.6z"/><path fill-rule="evenodd" class="a" d="m1947 1947.9h-1903.2v-1903.1h1903.2zm-1843.7-1843.7v1784.2h1784.2v-1784.2z"/><path class="a" d="m478.4 1016.9l214.8-371.2 214.8 371.2z"/><path fill-rule="evenodd" class="a" d="m959.5 1046.7h-532.7l266.4-460.4zm-429.7-59.5h326.5l-163.2-282.1z"/><path class="a" d="m1082.8 808.8l214.8-371.3 214.8 371.3z"/><path fill-rule="evenodd" class="a" d="m1564 838.5h-532.7l266.3-460.3zm-429.6-59.5h326.5l-163.2-282.2z"/><path class="a" d="m478.4 1586.6l214.8-371.3 214.8 371.3z"/><path fill-rule="evenodd" class="a" d="m959.5 1616.4h-532.7l266.4-460.4zm-429.7-59.5h326.5l-163.2-282.1z"/><path class="a" d="m1082.8 1378.5l214.8-371.3 214.8 371.3z"/><path fill-rule="evenodd" class="a" d="m1564 1408.2h-532.7l266.3-460.4zm-429.6-59.4h326.5l-163.2-282.2z"/></g><path fill-rule="evenodd" class="a" d="m43.8 44.8h1903.2v1903.1h-1903.2zm119 1784.1h1665.2v-1665.2h-1665.2z"/><path class="a" d="m426.8 1046.7h532.8l-266.4-460.4z"/><path class="a" d="m1031.2 838.5h532.8l-266.4-460.3z"/><path class="a" d="m426.8 1616.4h532.8l-266.4-460.4z"/><path class="a" d="m1031.2 1408.2h532.8l-266.4-460.4z"/><path fill-rule="evenodd" class="b" d="m2477.4 1419.2q-88.1 0-137.2-36.8-48.2-36.9-67.6-99.4-18.4-62.4-18.4-139.2v-292.9q0-84 18.4-146.4 19.4-62.5 67.6-96.3 49.1-34.8 137.2-34.8 77.8 0 122.9 28.7 46 28.6 65.5 81.9 20.5 53.2 20.5 128v65.5h-109.6v-58.3q0-46.1-5.1-80.9-4.1-35.9-24.6-55.3-20.5-19.5-68.6-19.5-49.1 0-71.7 21.5-22.5 20.5-29.7 59.4-6.1 37.9-6.1 89.1v328.7q0 62.5 10.2 99.3 10.3 35.9 33.8 51.2 23.6 15.4 63.5 15.4 47.1 0 67.6-20.5 20.5-21.5 25.6-58.4 5.1-36.8 5.1-86v-61.4h109.6v61.4q0 75.8-18.5 134.2-18.4 57.3-63.4 90.1-45.1 31.7-127 31.7zm473.1-1q-65.6 0-103.5-26.6-37.8-26.7-54.2-75.8-15.4-49.2-15.4-115.7v-172.1q0-66.5 15.4-115.7 16.4-49.1 54.2-75.7 37.9-26.7 103.5-26.7 65.5 0 102.4 26.7 37.9 26.6 53.2 75.7 16.4 49.2 16.4 115.7v172.1q0 66.5-16.4 115.7-15.3 49.1-53.2 75.8-36.9 26.6-102.4 26.6zm0-80.9q31.7 0 44-18.4 13.3-18.5 15.4-48.2 3-30.7 3-63.5v-185.3q0-33.8-3-63.5-2.1-29.7-15.4-48.1-12.3-19.5-44-19.5-31.8 0-45.1 19.5-13.3 18.4-16.4 48.1-2 29.7-2 63.5v185.3q0 32.8 2 63.5 3.1 29.7 16.4 48.2 13.3 18.4 45.1 18.4zm409.6 80.9q-72.7 0-116.8-45.1-44-46-50.1-120.8l91.1-27.6q8.2 56.3 27.6 84.9 19.5 27.7 57.4 27.7 29.7 0 45-16.4 15.4-17.4 15.4-46.1 0-25.6-11.3-46-11.2-20.5-36.8-42l-101.4-87.1q-30.7-26.6-52.2-59.4-20.5-32.7-20.5-85 0-47.1 18.4-78.8 19.5-32.8 53.3-49.2 34.8-17.4 80.9-17.4 70.6 0 107.5 46.1 37.9 45.1 43 109.6l-73.7 27.6q-4.1-30.7-12.3-53.2-8.2-23.6-22.5-35.9-14.4-13.3-37.9-13.3-26.7 0-43 18.5-15.4 17.4-15.4 41.9 0 15.4 6.1 30.8 7.2 14.3 23.6 28.6l104.4 96.3q21.5 19.5 40 42 19.4 22.5 31.7 51.2 12.3 28.7 12.3 66.5 0 50.2-20.5 84-20.4 33.8-57.3 51.2-36.9 16.4-86 16.4zm347.1-8.2h-101.4v-591.9h101.4v56.3q29.7-33.7 65.5-50.1 35.9-16.4 73.8-16.4 32.7 0 58.3 16.4 26.7 16.4 37.9 58.3 31.8-38.9 68.6-56.3 37.9-18.4 78.9-18.4 28.7 0 52.2 14.3 23.6 13.3 37.9 44.1 14.3 29.7 14.3 78.8v464.9h-100.3v-457.7q0-43-14.4-57.4-13.3-15.3-36.8-15.3-22.5 0-47.1 13.3-24.6 12.3-45.1 34.8 0 4.1 0 8.2 0 4.1 0 9.2v464.9h-100.3v-457.7q0-43-14.4-57.4-13.3-15.3-36.8-15.3-22.6 0-47.1 13.3-23.6 12.3-45.1 34.8zm757.8 8.2q-65.6 0-103.5-26.6-37.8-26.7-54.2-75.8-15.4-49.2-15.4-115.7v-172.1q0-66.5 15.4-115.7 16.4-49.1 54.2-75.7 37.9-26.7 103.5-26.7 65.5 0 102.4 26.7 37.9 26.6 53.2 75.7 16.4 49.2 16.4 115.7v172.1q0 66.5-16.4 115.7-15.3 49.1-53.2 75.8-36.9 26.6-102.4 26.6zm0-80.9q31.7 0 44-18.4 13.3-18.5 15.4-48.2 3-30.7 3-63.5v-185.3q0-33.8-3-63.5-2.1-29.7-15.4-48.1-12.3-19.5-44-19.5-31.8 0-45.1 19.5-13.3 18.4-16.4 48.1-2 29.7-2 63.5v185.3q0 32.8 2 63.5 3.1 29.7 16.4 48.2 13.3 18.4 45.1 18.4zm409.6 80.9q-72.7 0-116.8-45.1-44-46-50.1-120.8l91.1-27.6q8.2 56.3 27.6 84.9 19.5 27.7 57.4 27.7 29.7 0 45-16.4 15.4-17.4 15.4-46.1 0-25.6-11.3-46.1-11.2-20.4-36.8-41.9l-101.4-87.1q-30.7-26.6-52.2-59.4-20.5-32.7-20.5-85 0-47.1 18.4-78.8 19.5-32.8 53.3-49.2 34.8-17.4 80.9-17.4 70.6 0 107.5 46.1 37.9 45.1 43 109.6l-73.7 27.6q-4.1-30.7-12.3-53.2-8.2-23.6-22.5-35.9-14.4-13.3-37.9-13.3-26.7 0-43 18.5-15.4 17.4-15.4 41.9 0 15.4 6.1 30.8 7.2 14.3 23.6 28.6l104.4 96.3q21.5 19.4 40 42 19.4 22.5 31.7 51.2 12.3 28.6 12.3 66.5 0 50.2-20.5 84-20.5 33.8-57.3 51.2-36.9 16.4-86 16.4z"/></svg>